<svg width="148" height="148" viewBox="0 0 148 148" fill="none" xmlns="http://www.w3.org/2000/svg">
<g filter="url(#filter0_d_1_10)">
<path d="M12.4003 8.74036L23.582 24.548L38.2042 36.1214L49.6726 42.3315L53.9732 45.4366L58.5606 42.3315L61.141 36.1214L66.3017 28.7822L73.4695 18.6201L75.7631 15.7973C75.7631 15.7973 78.0568 14.3859 80.6372 11.5631C83.2176 8.74036 85.798 5.35302 87.5182 0.836556C89.2385 -3.6799 89.8119 11.5631 89.8119 11.5631L85.798 27.0885C85.798 27.0885 89.8119 28.7822 83.2176 38.6619C81.2835 41.5596 80.04 43.0732 79.2484 43.7653L80.6372 45.4366L89.8119 42.3315C89.8119 42.3315 93.5391 41.2024 97.5531 42.3315C101.567 43.4606 101.28 43.4606 105.294 47.6948C109.308 51.929 109.308 55.8809 109.308 55.8809L111.602 64.3493L144 87.2139L109.308 68.5835C107.875 67.8307 104.663 66.3252 103.287 66.3252H95.2594H85.798C85.798 66.3252 85.798 64.3493 83.2176 72.5354C80.6372 80.7215 75.7631 82.9797 75.7631 82.9797C75.2853 84.0147 73.7562 87.1574 71.4625 91.448C69.1688 95.7387 60.3764 100.011 56.2669 101.61L49.6726 104.997L51.6795 117.982H49.6726L51.6795 127.297H47.3789V136.33V140C47.3789 140 38.2042 136.33 38.2042 129.838C38.2042 123.346 33.9036 120.805 33.9036 120.805C33.9036 120.805 38.2042 111.208 36.1972 97.0936C34.1903 82.9797 40.4979 80.7215 40.4979 80.7215L33.9036 77.0518L26.1624 72.5354L21.5751 68.5835C21.5751 68.5835 22.7219 66.3252 16.4143 60.6796C10.1067 55.0341 6.95287 36.1214 6.95287 36.1214C3.22565 29.9113 4.08577 24.548 4.08577 24.548L6.95287 18.6201V11.5631L10.6801 15.7973L12.4003 8.74036Z" fill="#09B5FF"/>
</g>
<defs>
<filter id="filter0_d_1_10" x="0" y="0" width="148" height="148" filterUnits="userSpaceOnUse" color-interpolation-filters="sRGB">
<feFlood flood-opacity="0" result="BackgroundImageFix"/>
<feColorMatrix in="SourceAlpha" type="matrix" values="0 0 0 0 0 0 0 0 0 0 0 0 0 0 0 0 0 0 127 0" result="hardAlpha"/>
<feOffset dy="4"/>
<feGaussianBlur stdDeviation="2"/>
<feComposite in2="hardAlpha" operator="out"/>
<feColorMatrix type="matrix" values="0 0 0 0 0 0 0 0 0 0 0 0 0 0 0 0 0 0 0.25 0"/>
<feBlend mode="normal" in2="BackgroundImageFix" result="effect1_dropShadow_1_10"/>
<feBlend mode="normal" in="SourceGraphic" in2="effect1_dropShadow_1_10" result="shape"/>
</filter>
</defs>
</svg>
