<svg width="346" height="259" viewBox="0 0 346 259" fill="none" xmlns="http://www.w3.org/2000/svg">
<path d="M111.288 111.026L123.588 128.753L139.673 141.732L152.288 148.696L157.019 152.178L162.065 148.696L164.903 141.732L170.58 133.501L178.464 122.105L180.987 118.94C180.987 118.94 183.51 117.357 186.349 114.191C189.187 111.026 192.026 107.227 193.918 102.162C195.81 97.0973 196.441 114.191 196.441 114.191L192.026 131.602C192.026 131.602 196.441 133.501 189.187 144.581C187.06 147.83 185.692 149.528 184.821 150.304L186.349 152.178L196.441 148.696C196.441 148.696 200.541 147.43 204.956 148.696C209.372 149.962 209.056 149.962 213.472 154.71C217.887 159.459 217.887 163.89 217.887 163.89L220.41 173.387L256.048 199.028L217.887 178.135C216.31 177.291 212.778 175.603 211.264 175.603H192.026C192.026 175.603 192.026 173.387 189.187 182.567C186.349 191.747 180.987 194.28 180.987 194.28C180.462 195.44 178.78 198.965 176.257 203.776C173.734 208.588 164.062 213.379 159.542 215.172L152.288 218.971L154.495 233.533H152.288L154.495 243.979H149.765V258.224C149.765 258.224 139.673 254.109 139.673 246.828C139.673 239.547 134.942 236.698 134.942 236.698C134.942 236.698 139.673 225.935 137.465 210.108C135.257 194.28 142.196 191.747 142.196 191.747L134.942 187.632L126.427 182.567L121.381 178.135C121.381 178.135 122.642 175.603 115.704 169.272C108.765 162.941 105.296 141.732 105.296 141.732C101.196 134.767 102.142 128.753 102.142 128.753L105.296 122.105V114.191L109.396 118.94L111.288 111.026Z" fill="#09B5FF"/>
<path d="M0 84.224V0H22.784C28.5867 0 33.5787 0.853335 37.76 2.56001C42.0267 4.26667 45.312 6.69867 47.616 9.856C49.92 13.0133 51.072 16.8107 51.072 21.248C51.072 24.832 50.2187 28.2453 48.512 31.488C46.8907 34.7307 44.672 37.632 41.856 40.192C39.04 42.6667 35.7973 44.6293 32.128 46.08C28.544 47.5307 24.7467 48.256 20.736 48.256H3.584V41.344H21.888C25.3867 41.344 28.5867 40.4907 31.488 38.784C34.4747 37.0773 36.864 34.816 38.656 32C40.5333 29.0987 41.472 26.0267 41.472 22.784C41.472 17.92 39.808 14.08 36.48 11.264C33.152 8.448 28.3307 7.04 22.016 7.04H9.216V84.224H0ZM64.256 85.376C60.8427 85.376 57.7707 84.864 55.04 83.84C52.3947 82.7307 49.792 80.9813 47.232 78.592C44.7573 76.1173 42.0693 72.832 39.168 68.736L22.912 45.696L30.464 43.008L48.128 65.408C50.8587 68.8213 53.2907 71.5093 55.424 73.472C57.5573 75.3493 59.5627 76.672 61.44 77.44C63.4027 78.208 65.3653 78.592 67.328 78.592C68.096 78.592 69.0347 78.5493 70.144 78.464C71.2533 78.3787 72.3627 78.1653 73.472 77.824L75.392 83.328C73.2587 84.096 71.296 84.608 69.504 84.864C67.712 85.2053 65.9627 85.376 64.256 85.376Z" fill="white"/>
<path d="M96.26 85.088C92.484 85.088 89.156 84.32 86.276 82.784C83.396 81.184 81.124 78.944 79.46 76.064C77.86 73.12 77.06 69.664 77.06 65.696C77.06 61.28 77.956 57.44 79.748 54.176C81.604 50.848 84.068 48.288 87.14 46.496C90.276 44.64 93.796 43.712 97.7 43.712C102.436 43.712 105.988 45.056 108.356 47.744C110.724 50.432 111.908 54.112 111.908 58.784C111.908 59.296 111.876 59.872 111.812 60.512C111.812 61.088 111.78 61.632 111.716 62.144H106.052V58.784C106.052 55.328 105.348 52.736 103.94 51.008C102.532 49.216 100.324 48.32 97.316 48.32C94.5 48.32 92.036 49.024 89.924 50.432C87.812 51.776 86.18 53.664 85.028 56.096C83.876 58.528 83.3 61.44 83.3 64.832C83.3 69.44 84.612 73.12 87.236 75.872C89.86 78.56 93.284 79.904 97.508 79.904C99.684 79.904 101.764 79.52 103.748 78.752C105.732 77.984 107.652 76.736 109.508 75.008L111.908 78.56C110.18 80.16 108.42 81.44 106.628 82.4C104.9 83.36 103.172 84.032 101.444 84.416C99.716 84.864 97.988 85.088 96.26 85.088ZM80.708 62.144L81.572 58.016H110.852V62.144H80.708Z" fill="#09B5FF"/>
<path d="M151.945 84.8C149.513 84.8 147.593 83.936 146.185 82.208C144.777 80.416 144.105 77.856 144.169 74.528L144.553 56.384C144.617 54.4 144.393 52.8 143.881 51.584C143.433 50.304 142.761 49.376 141.865 48.8C140.969 48.16 139.881 47.84 138.601 47.84C137.257 47.84 135.817 48.16 134.281 48.8C132.745 49.44 131.401 50.432 130.249 51.776C129.161 53.12 128.489 54.848 128.233 56.96L121.897 56.288C122.217 54.432 122.921 52.736 124.009 51.2C125.097 49.664 126.473 48.352 128.137 47.264C129.801 46.112 131.625 45.248 133.609 44.672C135.593 44.032 137.609 43.712 139.657 43.712C143.497 43.712 146.313 44.8 148.105 46.976C149.961 49.088 150.857 51.968 150.793 55.616L150.601 75.776C150.601 77.184 150.825 78.272 151.273 79.04C151.785 79.808 152.489 80.192 153.385 80.192C154.089 80.192 154.793 80.032 155.497 79.712C156.201 79.392 156.809 78.912 157.321 78.272L159.529 81.344C158.697 82.368 157.609 83.2 156.265 83.84C154.921 84.48 153.481 84.8 151.945 84.8ZM130.729 84.8C127.849 84.8 125.513 84 123.721 82.4C121.929 80.736 121.033 78.592 121.033 75.968C121.033 74.432 121.353 72.992 121.993 71.648C122.633 70.304 123.721 69.12 125.257 68.096C126.857 67.008 129.065 66.08 131.881 65.312L147.817 60.992L148.297 64.448L133.513 69.056C131.081 69.824 129.449 70.72 128.617 71.744C127.849 72.768 127.465 73.856 127.465 75.008C127.465 76.608 128.009 77.824 129.097 78.656C130.185 79.424 131.497 79.808 133.033 79.808C134.953 79.808 137.065 79.2 139.369 77.984C141.673 76.704 144.233 75.072 147.049 73.088L148.105 75.392C145.353 78.016 142.537 80.256 139.657 82.112C136.777 83.904 133.801 84.8 130.729 84.8Z" fill="#09B5FF"/>
<path d="M184.115 84.992C180.211 84.992 176.755 84.16 173.747 82.496C170.739 80.768 168.339 78.4 166.547 75.392C164.819 72.32 163.955 68.832 163.955 64.928C163.955 60.832 164.883 57.184 166.739 53.984C168.595 50.784 171.123 48.256 174.323 46.4C177.523 44.544 181.139 43.616 185.171 43.616C187.923 43.616 190.387 44.064 192.563 44.96C194.739 45.856 196.691 47.072 198.419 48.608L195.635 53.696C194.035 52.032 192.307 50.752 190.451 49.856C188.595 48.96 186.579 48.512 184.403 48.512C181.651 48.512 179.251 49.216 177.203 50.624C175.155 52.032 173.587 53.92 172.499 56.288C171.475 58.656 170.963 61.312 170.963 64.256C170.963 67.392 171.603 70.144 172.883 72.512C174.163 74.88 175.923 76.704 178.163 77.984C180.467 79.264 183.027 79.904 185.843 79.904C187.827 79.904 189.779 79.52 191.699 78.752C193.619 77.92 195.347 76.768 196.883 75.296L199.091 79.04C197.619 80.448 196.051 81.6 194.387 82.496C192.723 83.392 191.027 84.032 189.299 84.416C187.571 84.8 185.843 84.992 184.115 84.992Z" fill="#09B5FF"/>
<path d="M224.293 84.896C221.989 84.896 219.909 84.416 218.053 83.456C216.197 82.496 214.757 81.12 213.733 79.328C212.709 77.536 212.197 75.328 212.197 72.704V46.4L214.405 36.032L218.821 35.168V71.648C218.821 74.4 219.461 76.48 220.741 77.888C222.021 79.296 223.781 80 226.021 80C227.429 80 228.837 79.744 230.245 79.232C231.653 78.72 233.029 77.92 234.373 76.832L236.293 80C234.501 81.664 232.549 82.912 230.437 83.744C228.389 84.512 226.341 84.896 224.293 84.896ZM234.181 49.952L204.133 49.856L204.613 45.536L234.469 45.152L234.181 49.952Z" fill="#09B5FF"/>
<path d="M247.514 84.224V44.96L254.042 43.904V84.224H247.514ZM250.778 32.768C249.434 32.768 248.314 32.352 247.418 31.52C246.586 30.688 246.17 29.6 246.17 28.256C246.17 26.912 246.586 25.824 247.418 24.992C248.314 24.16 249.434 23.744 250.778 23.744C252.186 23.744 253.306 24.16 254.138 24.992C254.97 25.824 255.386 26.912 255.386 28.256C255.386 29.6 254.97 30.688 254.138 31.52C253.306 32.352 252.186 32.768 250.778 32.768Z" fill="#09B5FF"/>
<path d="M281.956 84.224L265.732 44.48H273.027L287.332 82.208L283.971 82.304L297.508 44.48H304.228L287.811 84.224H281.956Z" fill="#09B5FF"/>
<path d="M330.354 85.088C326.578 85.088 323.25 84.32 320.37 82.784C317.49 81.184 315.218 78.944 313.554 76.064C311.954 73.12 311.154 69.664 311.154 65.696C311.154 61.28 312.05 57.44 313.842 54.176C315.698 50.848 318.162 48.288 321.234 46.496C324.37 44.64 327.89 43.712 331.794 43.712C336.53 43.712 340.082 45.056 342.45 47.744C344.818 50.432 346.002 54.112 346.002 58.784C346.002 59.296 345.97 59.872 345.906 60.512C345.906 61.088 345.874 61.632 345.81 62.144H340.146V58.784C340.146 55.328 339.442 52.736 338.034 51.008C336.626 49.216 334.418 48.32 331.41 48.32C328.594 48.32 326.13 49.024 324.018 50.432C321.906 51.776 320.274 53.664 319.122 56.096C317.97 58.528 317.394 61.44 317.394 64.832C317.394 69.44 318.706 73.12 321.33 75.872C323.954 78.56 327.378 79.904 331.602 79.904C333.778 79.904 335.858 79.52 337.842 78.752C339.826 77.984 341.746 76.736 343.602 75.008L346.002 78.56C344.274 80.16 342.514 81.44 340.722 82.4C338.994 83.36 337.266 84.032 335.538 84.416C333.81 84.864 332.082 85.088 330.354 85.088ZM314.802 62.144L315.666 58.016H344.946V62.144H314.802Z" fill="white"/>
<path d="M132.608 208.376C124.075 208.376 116.523 206.627 109.952 203.128C103.467 199.544 98.3893 194.595 94.72 188.28C91.136 181.88 89.344 174.456 89.344 166.008C89.344 159.352 90.4533 153.336 92.672 147.96C94.8907 142.499 98.0053 137.848 102.016 134.008C106.112 130.083 110.848 127.096 116.224 125.048C121.685 122.915 127.616 121.848 134.016 121.848C138.709 121.848 143.232 122.445 147.584 123.64C151.936 124.835 156.032 126.584 159.872 128.888L155.392 137.208C151.723 134.477 148.011 132.429 144.256 131.064C140.501 129.613 136.405 128.888 131.968 128.888C125.397 128.888 119.68 130.381 114.816 133.368C109.952 136.355 106.155 140.536 103.424 145.912C100.779 151.203 99.456 157.389 99.456 164.472C99.456 171.896 100.949 178.381 103.936 183.928C107.008 189.475 111.104 193.784 116.224 196.856C121.344 199.928 127.061 201.464 133.376 201.464C138.155 201.464 142.507 200.653 146.432 199.032C150.357 197.411 153.899 195.192 157.056 192.376L161.152 199.8C156.885 202.616 152.405 204.749 147.712 206.2C143.019 207.651 137.984 208.376 132.608 208.376Z" fill="white"/>
</svg>
